<svg width="24" height="24" viewBox="0 0 24 24" fill="none" xmlns="http://www.w3.org/2000/svg">
<g id="flags / EU">
<mask id="mask0_381_65" style="mask-type:luminance" maskUnits="userSpaceOnUse" x="0" y="0" width="24" height="24">
<rect id="Mask" width="24" height="24" rx="3" fill="white"/>
</mask>
<g mask="url(#mask0_381_65)">
<rect id="Mask Copy" width="24" height="24" fill="#043CAE"/>
<path id="Star 2" fill-rule="evenodd" clip-rule="evenodd" d="M11.0615 6.29901L12.0005 6.02398L12.9395 6.29901L12.6645 5.35999L12.9395 4.42096L12.0005 4.69599L11.0615 4.42096L11.3365 5.35999L11.0615 6.29901ZM11.0615 19.5789L12.0005 19.3039L12.9395 19.5789L12.6645 18.6399L12.9395 17.7009L12.0005 17.9759L11.0615 17.7009L11.3365 18.6399L11.0615 19.5789ZM18.6401 12.6641L17.7011 12.9391L17.9761 12.0001L17.7011 11.0611L18.6401 11.3361L19.5791 11.0611L19.3041 12.0001L19.5791 12.9391L18.6401 12.6641ZM4.42126 12.9391L5.36029 12.6641L6.29932 12.9391L6.02428 12.0001L6.29932 11.0611L5.36029 11.3361L4.42126 11.0611L4.6963 12.0001L4.42126 12.9391ZM17.7507 9.34402L16.8117 9.61906L17.0867 8.68003L16.8117 7.741L17.7507 8.01604L18.6897 7.741L18.4147 8.68003L18.6897 9.61906L17.7507 9.34402ZM5.31127 16.2589L6.2503 15.9839L7.18933 16.2589L6.91429 15.3199L7.18933 14.3808L6.2503 14.6559L5.31127 14.3808L5.58631 15.3199L5.31127 16.2589ZM15.32 6.91369L14.381 7.18873L14.656 6.2497L14.381 5.31067L15.32 5.58571L16.259 5.31067L15.984 6.2497L16.259 7.18873L15.32 6.91369ZM7.74137 18.6895L8.6804 18.4144L9.61943 18.6895L9.34439 17.7505L9.61943 16.8114L8.6804 17.0865L7.74137 16.8114L8.01641 17.7505L7.74137 18.6895ZM17.7507 15.9839L16.8117 16.2589L17.0867 15.3199L16.8117 14.3808L17.7507 14.6559L18.6897 14.3808L18.4147 15.3199L18.6897 16.2589L17.7507 15.9839ZM5.31127 9.61906L6.2503 9.34402L7.18933 9.61906L6.91429 8.68003L7.18933 7.741L6.2503 8.01604L5.31127 7.741L5.58631 8.68003L5.31127 9.61906ZM15.32 18.4144L14.381 18.6895L14.656 17.7505L14.381 16.8114L15.32 17.0865L16.259 16.8114L15.984 17.7505L16.259 18.6895L15.32 18.4144ZM7.74137 7.18873L8.6804 6.91369L9.61943 7.18873L9.34439 6.2497L9.61943 5.31067L8.6804 5.58571L7.74137 5.31067L8.01641 6.2497L7.74137 7.18873Z" fill="#FFD429"/>
</g>
</g>
</svg>
