<svg width="24" height="24" viewBox="0 0 24 24" fill="none" xmlns="http://www.w3.org/2000/svg">
<g id="game-icons:two-coins">
<path id="Vector" d="M12.3937 4.45359C10.725 4.45078 8.63434 4.97813 6.57184 6.05156C4.51263 7.125 2.88044 8.53125 1.92231 9.90469C0.963719 11.2734 0.7045 12.5484 1.17606 13.4578C1.64809 14.3625 2.84153 14.8828 4.5145 14.8828C6.18747 14.8875 8.27809 14.3578 10.3359 13.2891C12.3984 12.2156 14.0297 10.8047 14.9859 9.43594C15.9468 8.06719 16.2 6.79219 15.7312 5.88281C15.2578 4.97813 14.0672 4.45359 12.3937 4.45359ZM16.7015 7.74844C16.5375 8.46563 16.1812 9.20156 15.6797 9.91875C14.6203 11.4328 12.8906 12.9094 10.725 14.0344C8.55934 15.1641 6.36091 15.7313 4.51403 15.7313C3.64216 15.7313 2.83403 15.6 2.15294 15.3234L2.64934 16.2797C3.12184 17.1891 4.312 17.7094 5.98591 17.7094C7.65934 17.7094 9.74997 17.1844 11.8078 16.1109C13.8703 15.0422 15.5015 13.6313 16.4578 12.2578C17.414 10.8891 17.6765 9.61406 17.2031 8.70938L16.7015 7.74844ZM18.0515 8.53594C18.5765 9.7875 18.1547 11.3109 17.1515 12.7406C16.2656 14.0109 14.9109 15.2438 13.2328 16.275C13.7531 16.3313 14.2968 16.3594 14.85 16.3594C17.1703 16.3594 19.2703 15.8625 20.7515 15.0891C22.2375 14.3156 23.0531 13.3031 23.0531 12.2812C23.0531 11.2594 22.2375 10.2469 20.7515 9.47344C19.9968 9.07969 19.0781 8.75625 18.0515 8.53594ZM23.0531 14.3859C22.575 14.9437 21.9187 15.4359 21.1453 15.8391C19.5047 16.6922 17.2922 17.2031 14.85 17.2031C13.8562 17.2031 12.9 17.1187 12.0047 16.9594C10.9172 17.5078 9.82497 17.9156 8.77497 18.1828C8.83122 18.2156 8.88747 18.2437 8.94841 18.2766C10.4297 19.05 12.5297 19.5469 14.85 19.5469C17.1703 19.5469 19.2703 19.05 20.7515 18.2766C22.2375 17.5031 23.0531 16.4906 23.0531 15.4688V14.3859Z" fill="#9BA1AB"/>
</g>
</svg>
